<svg width="224" height="96" viewBox="0 0 224 96" fill="none" xmlns="http://www.w3.org/2000/svg">
<path d="M188.136 75.9556H205.168C214.825 75.9556 220.592 69.2647 222.067 60.2492C222.32 58.7292 222.439 57.1497 222.439 55.5254V50.7866C222.439 49.4753 222.29 48.2086 222.022 46.9867C220.294 39.2825 213.409 33.5155 205.183 33.5155L167.512 27.8082L134.117 9.76221C132.195 8.71909 130.332 7.58656 128.499 6.42423C122.971 2.89252 116.518 1 109.917 1H75.2254C54.4077 1 39.7444 13.89 28.6129 33.5155H10.7904C5.39601 33.5155 1 37.9264 1 43.3209V54.7356C1 66.4036 10.2242 75.9556 24.6937 75.9556" stroke="black" stroke-opacity="0.72" stroke-width="2" stroke-miterlimit="10" stroke-linecap="round" stroke-linejoin="round"/>
<path d="M62.7825 75.9556H150.047" stroke="black" stroke-opacity="0.72" stroke-width="2" stroke-miterlimit="10" stroke-linecap="round" stroke-linejoin="round"/>
<path d="M188.136 75.9556C188.136 86.4762 179.612 95 169.091 95C158.571 95 150.047 86.4762 150.047 75.9556C150.047 65.435 158.571 56.9112 169.091 56.9112C179.612 56.9112 188.136 65.435 188.136 75.9556Z" stroke="black" stroke-opacity="0.72" stroke-width="2" stroke-miterlimit="10" stroke-linecap="round" stroke-linejoin="round"/>
<path d="M43.7381 95C54.256 95 62.7825 86.4735 62.7825 75.9556C62.7825 65.4377 54.256 56.9112 43.7381 56.9112C33.2202 56.9112 24.6937 65.4377 24.6937 75.9556C24.6937 86.4735 33.2202 95 43.7381 95Z" stroke="black" stroke-opacity="0.72" stroke-width="2" stroke-miterlimit="10" stroke-linecap="round" stroke-linejoin="round"/>
<path d="M94.1357 12.1017H74.7038C73.3329 12.1017 71.4851 12.4594 69.3988 13.0406C60.1598 15.6484 52.1426 21.2961 46.629 28.9258L43.3208 33.5006C42.8291 34.1861 43.3208 35.1547 44.1702 35.1547H142.551C146.187 35.1547 147.469 30.4905 144.31 28.747L117.308 13.8005C115.296 12.6829 113.016 12.1017 110.706 12.1017H94.1357Z" stroke="black" stroke-opacity="0.72" stroke-width="2" stroke-miterlimit="10" stroke-linecap="round" stroke-linejoin="round"/>
<path d="M94.1357 12.1017V35.1398" stroke="black" stroke-opacity="0.72" stroke-width="2" stroke-miterlimit="10" stroke-linecap="round" stroke-linejoin="round"/>
<path d="M94.1357 48.462V75.9556" stroke="black" stroke-opacity="0.72" stroke-width="2" stroke-miterlimit="10" stroke-linecap="round" stroke-linejoin="round"/>
<path d="M222.082 60.2492H201.95V46.9867H222.022" stroke="black" stroke-opacity="0.72" stroke-width="2" stroke-miterlimit="10" stroke-linecap="round" stroke-linejoin="round"/>
</svg>
