<svg width="116" height="96" viewBox="0 0 116 96" fill="none" xmlns="http://www.w3.org/2000/svg">
<path d="M85.1185 3.79711C86.4986 3.41993 88.0245 3.17134 89.696 3.07705C98.4396 2.56272 100.497 9.42044 100.497 9.42044H113.698C116.098 12.5064 111.298 17.4783 111.298 17.4783C111.298 17.4783 112.669 23.6331 108.04 23.8045C103.411 23.976 96.0394 25.8018 96.0394 25.8018C93.3563 28.7078 92.9106 31.2366 93.4163 33.7568C94.7193 40.2545 102.306 46.7179 94.1535 59.4732C92.3963 62.2249 90.2875 64.728 87.9816 66.9996C86.3443 68.6111 84.6042 70.1027 82.8212 71.4828C82.1268 76.9604 81.381 82.618 81.381 82.618C81.381 82.618 84.0041 85.6097 85.7014 88.4728C86.4472 89.7158 87.0129 90.9416 87.1158 91.876C87.1158 91.876 81.9725 98.9051 74.0861 91.876L71.5745 78.6234C63.5681 82.8323 56.9418 84.7696 56.9418 84.7696C64.1424 86.0555 61.2279 91.8845 61.2279 91.8845L32.7684 91.9617C30.8825 87.3327 32.7684 84.7696 32.7684 84.7696C32.7684 84.7696 26.7764 83.0638 25.8764 76.609C25.5506 74.2602 25.8935 71.2857 27.4536 67.5396C33.2827 53.4813 53.513 50.0524 59.8564 44.7291C66.1998 39.4058 72.3717 33.7568 72.3717 33.7568C72.3717 33.7568 72.9718 30.7565 73.6575 26.7876C74.2404 23.4016 74.8919 19.3127 75.2862 15.7638C75.5348 13.5436 76.1092 11.5978 77.0007 9.93477" stroke="black" stroke-opacity="0.72" stroke-width="2" stroke-miterlimit="10" stroke-linecap="round" stroke-linejoin="round"/>
<path d="M77.0093 9.92617C76.4007 9.78044 75.8778 9.71186 75.4663 9.75472C72.3803 10.0976 80.781 1.01113 80.781 1.01113C80.781 1.01113 83.0612 0.668247 85.1185 3.78851C86.3015 5.58866 87.4159 8.52891 87.9816 13.355C88.1959 15.2238 80.9525 10.8948 77.0093 9.92617Z" stroke="black" stroke-opacity="0.72" stroke-width="2" stroke-miterlimit="10" stroke-linecap="round" stroke-linejoin="round"/>
<path d="M71.5832 78.6233L70.0745 60.5018" stroke="black" stroke-opacity="0.72" stroke-width="2" stroke-miterlimit="10" stroke-linecap="round" stroke-linejoin="round"/>
<path d="M82.8297 71.4828C83.2069 68.4826 83.5669 65.5337 83.7812 63.5879C84.3813 58.1017 85.4099 55.6072 85.4099 55.6072" stroke="black" stroke-opacity="0.72" stroke-width="2" stroke-miterlimit="10" stroke-linecap="round" stroke-linejoin="round"/>
<path d="M87.9902 66.9996L89.5332 81.7608C89.5332 81.7608 95.5337 81.2293 96.5624 87.667L85.7186 88.4728" stroke="black" stroke-opacity="0.72" stroke-width="2" stroke-miterlimit="10" stroke-linecap="round" stroke-linejoin="round"/>
<path d="M56.1789 84.7696L44.4351 83.3124C44.4351 83.3124 56.2646 82.558 55.0645 68.4482" stroke="black" stroke-opacity="0.72" stroke-width="2" stroke-miterlimit="10" stroke-linecap="round" stroke-linejoin="round"/>
<path d="M25.885 76.6089C25.885 76.6089 1 69.8712 1 51.724C1 51.724 13.2325 70.1198 27.4622 67.5396" stroke="black" stroke-opacity="0.72" stroke-width="2" stroke-miterlimit="10" stroke-linecap="round" stroke-linejoin="round"/>
<path d="M73.6661 26.7875C73.6661 26.7875 78.2694 34.2024 93.4164 33.7567" stroke="black" stroke-opacity="0.72" stroke-width="2" stroke-miterlimit="10" stroke-linecap="round" stroke-linejoin="round"/>
</svg>
