<svg width="133" height="295" viewBox="0 0 133 295" fill="none" xmlns="http://www.w3.org/2000/svg">
<path d="M1 293.19C1 293.19 45.9036 224.569 52.3378 176.743C52.3549 176.605 52.3719 176.448 52.3889 176.31C59.2657 124.943 60.8828 45.285 60.8828 45.285L56.2869 38.2025L63.9467 19.9062H69.0533L76.7131 38.2025L72.1172 45.285C72.1172 45.285 73.7343 124.963 80.6111 176.33C80.6281 176.468 80.6451 176.625 80.6621 176.763C87.0964 224.589 132 293.21 132 293.21" stroke="black" stroke-opacity="0.72" stroke-width="2" stroke-miterlimit="10" stroke-linecap="round" stroke-linejoin="round"/>
<path d="M132 293.19H101.735C101.735 293.19 95.6073 256.008 68.032 256.008H64.968C37.3927 256.008 31.2648 293.19 31.2648 293.19H1" stroke="black" stroke-opacity="0.72" stroke-width="2" stroke-miterlimit="10" stroke-linecap="round" stroke-linejoin="round"/>
<path d="M54.7549 230.609C54.7549 230.609 61.053 207.001 61.053 195.787H71.7767C71.7767 195.787 75.6917 221.166 78.245 230.609H54.7549Z" stroke="black" stroke-opacity="0.72" stroke-width="2" stroke-miterlimit="10" stroke-linecap="round" stroke-linejoin="round"/>
<path d="M66.5001 1V17.5257" stroke="black" stroke-opacity="0.72" stroke-width="2" stroke-miterlimit="10" stroke-linecap="round" stroke-linejoin="round"/>
<path d="M40.7289 176.31H92.305" stroke="black" stroke-opacity="0.72" stroke-width="2" stroke-miterlimit="10" stroke-linecap="round" stroke-linejoin="round"/>
<path d="M25.92 228.839H34.0905" stroke="black" stroke-opacity="0.72" stroke-width="2" stroke-miterlimit="10" stroke-linecap="round" stroke-linejoin="round"/>
<path d="M98.433 228.839H106.603" stroke="black" stroke-opacity="0.72" stroke-width="2" stroke-miterlimit="10" stroke-linecap="round" stroke-linejoin="round"/>
</svg>
