<svg width="94" height="94" viewBox="0 0 94 94" fill="none" xmlns="http://www.w3.org/2000/svg">
<path d="M5.13321 29.5727C5.18595 29.4285 5.20812 29.275 5.19829 29.1218C5.18846 28.9687 5.14685 28.8192 5.07612 28.683C5.00539 28.5468 4.90707 28.4268 4.78743 28.3306C4.66779 28.2345 4.52945 28.1643 4.38121 28.1245C4.10561 28.0582 3.81517 28.097 3.56671 28.2335C3.31825 28.37 3.12966 28.5942 3.03784 28.8624C2.87585 29.3141 2.74758 29.7772 2.65409 30.2478C2.42593 31.4011 2.45744 32.5907 2.74633 33.7303C3.03521 34.8699 3.57423 35.9308 4.32425 36.8361C5.55156 38.335 7.28005 39.3388 9.19014 39.6619C8.72815 41.7211 8.86639 44.7244 11.4644 46.9298C12.9663 48.1928 14.8614 48.893 16.8238 48.9099C18.5101 48.9289 20.1756 48.5356 21.6753 47.7642C22.9783 49.1175 26.2094 51.7575 31.5948 51.757C33.0149 51.7489 34.4295 51.5797 35.8115 51.2527C36.1773 51.4794 36.5524 51.7044 36.9489 51.9259C38.0712 52.566 39.0336 53.4524 39.7636 54.5184C40.4937 55.5844 40.9724 56.8021 41.1637 58.0798C41.6635 61.3651 41.9638 66.7997 40.5604 74.0087C40.5328 74.1353 37.7202 86.71 29.5909 90.7169C29.3304 90.8456 29.1308 91.0715 29.0353 91.3459C28.9398 91.6203 28.9559 91.9212 29.0803 92.1839C29.1763 92.3767 29.3251 92.5383 29.5093 92.6499C29.6935 92.7616 29.9055 92.8188 30.1209 92.8148H35.8715C36.1522 92.8195 36.4247 92.7202 36.6366 92.5361C36.8486 92.352 36.985 92.0961 37.0197 91.8175C37.0348 91.6639 37.0177 91.5088 36.9693 91.3622C36.9208 91.2156 36.8423 91.0807 36.7386 90.9663C36.6349 90.8519 36.5084 90.7605 36.3673 90.6979C36.2261 90.6353 36.0734 90.603 35.919 90.603H33.757C40.3556 85.0614 42.6179 74.9625 42.728 74.4546C44.1966 66.9114 43.8778 61.2056 43.3519 57.7472C43.1089 56.1365 42.5035 54.602 41.5815 53.2591C40.6594 51.9163 39.4447 50.8001 38.0288 49.9947C31.0617 46.1031 29.5621 41.4153 29.3316 38.7499C30.6073 39.2649 31.9505 39.5936 33.3199 39.7258C35.5273 46.467 42.1581 47.6854 42.4496 47.7354C42.6083 47.7627 42.7711 47.755 42.9266 47.7128C43.0821 47.6707 43.2264 47.595 43.3496 47.4912C43.4728 47.3874 43.5718 47.2579 43.6398 47.1119C43.7077 46.9658 43.7429 46.8067 43.7429 46.6456C43.7429 42.7084 43.572 38.5124 43.433 35.7457C46.178 36.1143 52.3754 36.5436 57.1042 33.8773C57.8097 35.5802 59.1245 36.9589 60.792 37.7443C59.5515 39.9072 57.293 42.6948 53.5924 43.5972C53.5095 42.3954 53.4011 40.4208 53.3762 38.237C53.3738 37.9453 53.2562 37.6663 53.0491 37.4609C52.842 37.2555 52.5621 37.1402 52.2703 37.1402H52.2576C52.1131 37.1402 51.9701 37.1688 51.8367 37.2244C51.7033 37.28 51.5823 37.3615 51.4806 37.4641C51.3789 37.5668 51.2986 37.6886 51.2443 37.8225C51.19 37.9564 51.1628 38.0997 51.1642 38.2442C51.2051 41.8828 51.4683 44.8781 51.4802 45.0036C51.5048 45.2788 51.6315 45.5349 51.8354 45.7213C52.0393 45.9078 52.3056 46.0111 52.5819 46.0111C52.6281 46.011 52.6743 46.0081 52.7202 46.0025C58.2648 45.3055 61.3836 41.2984 62.9167 38.4806C63.6351 38.6415 64.3656 38.7424 65.1008 38.7822C65.2667 38.7916 65.4243 38.7933 65.5841 38.7963C65.5564 38.9168 65.5288 39.0371 65.4964 39.1557C64.9272 41.2095 63.6822 43.0115 61.9626 44.2704C60.3987 45.4348 58.9248 46.7153 57.5531 48.1009C54.6314 51.1125 53.3508 54.178 53.4011 58.0409C53.5811 71.9233 57.6165 80.5674 60.97 85.3744C62.2955 87.2991 63.8508 89.055 65.6015 90.603H64.5445C64.2638 90.5983 63.9913 90.6976 63.7794 90.8817C63.5674 91.0657 63.431 91.3217 63.3963 91.6002C63.3812 91.7539 63.3983 91.909 63.4468 92.0556C63.4952 92.2022 63.5737 92.3371 63.6774 92.4515C63.7811 92.5659 63.9076 92.6573 64.0487 92.7199C64.1899 92.7825 64.3426 92.8148 64.497 92.8148H68.9435C69.1566 92.8189 69.3667 92.7634 69.5501 92.6546C69.7335 92.5458 69.8828 92.3879 69.9813 92.1988C70.1089 91.94 70.1304 91.6416 70.0414 91.3672C69.9523 91.0928 69.7597 90.8639 69.5044 90.7294C69.4707 90.7114 66.0806 88.8861 62.6955 83.9813C59.5589 79.4366 55.7837 71.2423 55.6126 58.0121C55.5708 54.781 56.6588 52.1993 59.1406 49.6409C60.4285 48.3406 61.8125 47.1391 63.2808 46.0467C65.4011 44.4896 66.9346 42.2631 67.6335 39.7269C67.7317 39.3589 67.8099 38.9843 67.8719 38.6069C69.3066 38.3271 70.6516 37.7018 71.7904 36.7853C72.9292 35.8688 73.8275 34.6886 74.4076 33.3468C76.3891 33.8936 80.7999 34.7994 85.0177 33.5348C85.2966 33.4487 85.5301 33.256 85.6675 32.9985C85.8048 32.741 85.8348 32.4396 85.7509 32.1601C85.667 31.8806 85.476 31.6456 85.2195 31.5063C84.9631 31.367 84.662 31.3347 84.3818 31.4165C79.5483 32.8657 74.1469 30.9561 74.0938 30.9373L74.0869 30.9354C74.0844 30.9354 74.0825 30.9332 74.0803 30.9324C72.2182 30.2633 70.5666 29.113 69.2935 27.5984C69.1162 27.3664 68.8544 27.2138 68.5651 27.1741C68.2758 27.1344 67.9825 27.2107 67.7493 27.3864C67.5161 27.5621 67.3618 27.8228 67.3201 28.1119C67.2784 28.4009 67.3527 28.6946 67.5268 28.9291C68.818 30.5011 70.4529 31.7556 72.3056 32.5959C71.6144 34.0772 69.717 36.8339 65.228 36.5732C60.5556 36.3014 59.2966 33.7256 58.9673 32.5848C60.194 31.5226 62.8064 28.7048 61.8702 24.5865C61.8014 24.3046 61.6244 24.061 61.3776 23.9084C61.1308 23.7557 60.8338 23.7062 60.5508 23.7706C60.2678 23.8349 60.0214 24.0079 59.8648 24.2522C59.7082 24.4966 59.654 24.7927 59.7138 25.0767C60.5589 28.795 57.2692 31.1278 57.1257 31.2274C57.121 31.2307 57.1177 31.2348 57.1133 31.2381C57.1089 31.2415 57.0978 31.2473 57.0906 31.2525C51.93 35.1049 43.0857 33.469 42.5123 33.3573C36.9094 31.8663 36.3108 28.2979 36.2845 28.1198C36.2663 27.9758 36.2198 27.8367 36.1478 27.7106C36.0758 27.5844 35.9796 27.4737 35.8648 27.3847C35.75 27.2958 35.6189 27.2303 35.4787 27.192C35.3386 27.1538 35.1924 27.1435 35.0483 27.1617C34.9042 27.18 34.7651 27.2265 34.639 27.2985C34.5129 27.3705 34.4022 27.4666 34.3132 27.5814C34.1335 27.8133 34.0533 28.107 34.0902 28.398C34.1153 28.602 34.7587 33.2381 41.193 35.2746C41.3185 37.668 41.4852 41.4449 41.5225 45.1742C39.8637 44.561 37.0523 43.0589 35.6697 39.6976C36.2437 39.6316 36.8112 39.5174 37.3661 39.3562C37.6391 39.2807 37.8741 39.1061 38.0253 38.8666C38.1765 38.6271 38.2329 38.3398 38.1836 38.0609C38.153 37.9105 38.0914 37.7681 38.0027 37.6427C37.914 37.5174 37.8002 37.4119 37.6685 37.333C37.5369 37.2541 37.3902 37.2034 37.2379 37.1843C37.0856 37.1651 36.9309 37.1779 36.7838 37.2218C32.8118 38.4068 28.8425 36.0794 28.8049 36.057C28.7994 36.0537 28.7933 36.0523 28.7878 36.049C28.7426 36.024 28.6958 36.0023 28.6476 35.9838C28.6249 35.9746 28.6031 35.9625 28.5798 35.9547C28.5345 35.9414 28.4883 35.9309 28.4416 35.9232C28.414 35.918 28.3863 35.9088 28.3556 35.9055H28.349C28.1981 35.8896 28.0456 35.9053 27.9011 35.9517H27.8981C20.3629 38.3639 17.7823 33.8453 17.68 33.6589C17.5946 33.4975 17.4706 33.3597 17.3191 33.2579C17.1675 33.156 16.993 33.0933 16.8113 33.0753C13.7386 32.7712 11.552 31.701 10.3123 29.8959C8.26451 26.9141 9.36708 22.7837 9.37786 22.7447C9.43119 22.5544 9.43252 22.3532 9.38173 22.1622C8.29299 18.0687 9.62226 16.0751 10.8216 15.1426C10.9652 16.7561 11.6261 18.2802 12.7057 19.4879C12.8098 19.6044 12.9373 19.6976 13.08 19.7613C13.2227 19.8249 13.3772 19.8576 13.5335 19.8572C13.6897 19.8568 13.8441 19.8234 13.9864 19.759C14.1288 19.6946 14.2558 19.6008 14.3593 19.4837C14.5369 19.2688 14.6303 18.9966 14.6222 18.7179C14.614 18.4392 14.5049 18.1729 14.3151 17.9687C13.8035 17.3757 13.4257 16.6795 13.2073 15.9274C12.9889 15.1754 12.935 14.3851 13.0494 13.6104C15.0859 7.46223 20.1345 8.19156 20.3438 8.22418C20.5957 8.26729 20.8548 8.22179 21.077 8.09543C21.2992 7.96906 21.4707 7.76964 21.5625 7.53107C22.0504 6.26235 23.9213 5.58195 24.5978 5.42768C24.6255 5.4216 24.6531 5.41414 24.6808 5.40584C27.3073 4.60408 29.3589 6.21397 29.4399 6.27894C29.6383 6.44148 29.887 6.53003 30.1435 6.52942C30.3999 6.52882 30.6482 6.4391 30.8458 6.27562C34.8931 2.92811 40.8634 3.41083 44.386 4.1009C43.1624 4.54064 41.901 4.86669 40.6177 5.07491C40.3452 5.1157 40.0968 5.25415 39.9188 5.46446C39.7407 5.67477 39.6452 5.94262 39.65 6.21811C39.6564 6.37435 39.6959 6.52745 39.7659 6.66731C39.8358 6.80716 39.9346 6.9306 40.0558 7.02946C40.1769 7.12833 40.3177 7.20037 40.4687 7.24085C40.6197 7.28133 40.7776 7.28931 40.932 7.26428C45.0481 6.59854 47.6325 5.10781 48.1573 4.78323C56.0091 1.45591 62.1232 5.1443 62.3778 5.30189C62.5343 5.40008 62.713 5.45743 62.8974 5.46868C63.0818 5.47993 63.2661 5.44474 63.4334 5.36631C67.8359 3.30798 71.046 5.20706 71.1746 5.2853C71.3388 5.38821 71.5272 5.44609 71.7209 5.45312C75.2763 5.58334 77.788 6.48076 79.1856 8.12023C80.0185 9.0858 80.4401 10.3391 80.3603 11.6118C80.3269 11.7705 79.8864 13.5266 76.8461 13.4445C76.6917 13.44 76.5382 13.4681 76.3954 13.5269C76.2526 13.5856 76.1237 13.6738 76.0172 13.7856C75.9107 13.8974 75.8289 14.0304 75.7771 14.1758C75.7254 14.3213 75.7048 14.4761 75.7167 14.63C75.7454 14.912 75.8779 15.1733 76.0884 15.3631C76.299 15.553 76.5726 15.6577 76.856 15.6571C76.9113 15.6571 76.9666 15.6571 77.0219 15.6571C79.9384 15.6571 81.4698 14.3007 82.1416 13.0757C84.1228 13.6286 85.5756 14.6035 86.4673 15.9842C88.0672 18.4619 87.3893 21.5119 87.3829 21.5387C87.3451 21.6979 87.3431 21.8634 87.377 22.0234C87.4109 22.1834 87.4799 22.3339 87.5789 22.4641C88.212 23.2841 88.6457 24.24 88.8457 25.2564C89.0615 26.3866 88.8774 27.5566 88.3249 28.5658C88.217 28.788 88.1584 29.031 88.1532 29.278C88.1479 29.525 88.1961 29.7702 88.2945 29.9968C88.9027 31.1762 89.7103 33.2896 89.0227 35.2981C88.4802 36.8828 87.0725 38.1864 84.8386 39.1729C84.6913 39.2378 84.5601 39.3342 84.4539 39.4551C84.3478 39.5761 84.2693 39.7187 84.224 39.8732C84.1546 40.1104 82.433 45.6577 74.7106 43.9058C74.5095 43.8601 74.2995 43.8715 74.1045 43.9389C73.9095 44.0063 73.7373 44.1269 73.6072 44.287C73.5688 44.3343 69.6894 49.0147 63.7483 47.929C63.5971 47.9014 63.4417 47.9058 63.2923 47.9417C63.1428 47.9775 63.0025 48.0442 62.8802 48.1373C62.7579 48.2305 62.6564 48.3481 62.5822 48.4827C62.5079 48.6173 62.4625 48.7659 62.4489 48.919C62.4322 49.2029 62.5219 49.4828 62.7005 49.7041C62.879 49.9254 63.1336 50.0723 63.4146 50.1161C64.1256 50.2439 64.8465 50.3086 65.5689 50.3096C70.3689 50.3096 73.6849 47.4081 74.8599 46.1966C82.6135 47.6594 85.4446 42.652 86.1537 41.0042C88.7351 39.7736 90.4036 38.0971 91.1161 36.0156C92.0008 33.4328 91.1728 30.8757 90.4249 29.3158C91.1011 27.9261 91.3091 26.3548 91.0177 24.837C90.7875 23.6512 90.3157 22.5255 89.6317 21.5299C89.8062 20.3549 90.0138 17.4166 88.3415 14.8081C87.1186 12.9026 85.1806 11.5908 82.5679 10.8999C82.4737 9.368 81.8916 7.90652 80.9069 6.72931C79.1339 4.61652 76.1615 3.44788 72.0692 3.25407C71.0739 2.73541 67.5583 1.23971 63.0231 3.13021C60.6415 1.94053 58.0313 1.27872 55.3706 1.18997C52.7098 1.10123 50.0613 1.58763 47.6057 2.61598C45.5372 1.9707 36.4164 -0.489617 30.0919 4.06468C29.196 3.5274 28.199 3.1804 27.1631 3.04531C26.1272 2.91023 25.0746 2.98995 24.0709 3.27951C23.6742 3.37489 21.1096 4.05722 19.8777 5.98643C17.9656 5.95519 13.2808 6.54573 11.1052 12.463C9.71581 13.0412 8.55011 14.0525 7.78152 15.3463C6.67564 17.2352 6.47105 19.625 7.17162 22.4516C6.90925 23.6109 6.18988 27.7842 8.4774 31.1328C10.0256 33.3982 12.578 34.7709 16.0698 35.2171C16.8992 36.3388 19.2703 38.8665 23.8165 38.8665C24.9221 38.8584 26.023 38.7238 27.098 38.4654C27.2193 41.0144 28.2627 45.4095 33.2583 49.4495C26.2174 50.2123 22.9551 45.9016 22.8077 45.7023C22.6416 45.4714 22.393 45.3135 22.1135 45.2612C21.834 45.2089 21.5451 45.2662 21.3067 45.4214C19.9854 46.2906 18.4304 46.7363 16.8492 46.6989C15.4024 46.6884 14.0044 46.174 12.8957 45.2444C10.0433 42.8234 11.6137 39.2801 11.6792 39.1344C11.7585 38.9644 11.7932 38.777 11.7801 38.5899C11.7671 38.4028 11.7066 38.2221 11.6044 38.0647C11.5023 37.9074 11.3618 37.7787 11.1961 37.6906C11.0305 37.6025 10.8452 37.558 10.6576 37.5613H10.5382H10.5285C9.66779 37.5615 8.81775 37.3705 8.03991 37.0019C7.26206 36.6334 6.57585 36.0965 6.03091 35.4303C5.48925 34.7775 5.09975 34.0122 4.89068 33.1901C4.68161 32.3681 4.65821 31.5097 4.82218 30.6775C4.89723 30.3017 5.00122 29.9324 5.13321 29.5727Z" fill="black" fill-opacity="0.72"/>
<path d="M53.8659 91.7089C53.8659 92.0022 53.9824 92.2834 54.1898 92.4908C54.3972 92.6982 54.6785 92.8148 54.9718 92.8148H59.3561C59.4263 92.8144 59.4964 92.8073 59.5654 92.7937C59.5908 92.7888 59.6143 92.7802 59.6386 92.7736C59.6813 92.7632 59.7233 92.7501 59.7644 92.7346C59.7921 92.7235 59.8197 92.7091 59.8454 92.6956C59.8806 92.6791 59.9149 92.6607 59.948 92.6403C59.9756 92.6223 60.0033 92.6016 60.0284 92.5811C60.0486 92.5657 60.0702 92.5535 60.0895 92.5363C60.0976 92.5292 60.1031 92.5206 60.1111 92.5131C60.1396 92.4852 60.1666 92.4559 60.1921 92.4252C60.214 92.3998 60.2364 92.3752 60.2557 92.3481C60.2757 92.3179 60.2942 92.2867 60.311 92.2546C60.3287 92.2239 60.3472 92.1938 60.3616 92.162C60.376 92.1302 60.3859 92.0962 60.3975 92.0628C60.4091 92.0293 60.4216 91.9939 60.4299 91.9582C60.4382 91.9226 60.4407 91.8927 60.4454 91.8595C60.4515 91.8203 60.4555 91.7807 60.4573 91.7409C60.4573 91.7302 60.4606 91.7199 60.4606 91.7091C60.4606 91.6865 60.455 91.6652 60.4539 91.6428C60.452 91.603 60.4479 91.5633 60.4418 91.5239C60.4356 91.4898 60.4278 91.456 60.4183 91.4227C60.4092 91.3872 60.3984 91.3521 60.3856 91.3177C60.3723 91.2835 60.3572 91.2501 60.3403 91.2176C60.3248 91.1866 60.3093 91.1562 60.2908 91.1263C60.2692 91.0928 60.2459 91.0604 60.2209 91.0293C60.2071 91.0119 60.1971 90.9923 60.1819 90.9754C54.6984 84.7932 53.2701 72.5265 53.2549 72.4035C53.2192 72.1147 53.071 71.8515 52.8426 71.6712C52.6142 71.4909 52.3239 71.4079 52.0346 71.4402C51.7454 71.4725 51.4806 71.6175 51.2976 71.8438C51.1145 72.0701 51.0281 72.3594 51.057 72.649C51.1123 73.1345 52.3362 83.6724 57.0973 90.6033H54.9707C54.6776 90.6035 54.3967 90.7202 54.1895 90.9275C53.9824 91.1348 53.866 91.4158 53.8659 91.7089Z" fill="black" fill-opacity="0.72"/>
<path d="M39.5812 90.7877L39.5787 90.7896C39.5182 90.8301 39.4618 90.8764 39.4103 90.9279C39.3879 90.9503 39.3711 90.976 39.3509 90.9998C39.3235 91.0298 39.2979 91.0614 39.274 91.0943C39.256 91.1239 39.2395 91.1543 39.2245 91.1855C39.1834 91.2481 39.1545 91.3177 39.1391 91.391C39.1291 91.4239 39.1162 91.4554 39.1092 91.4894C39.0949 91.5606 39.0876 91.633 39.0874 91.7056V91.7089C39.0874 91.7269 39.0918 91.7437 39.0927 91.7617C39.0941 91.8159 39.0996 91.87 39.109 91.9234C39.1159 91.9588 39.1289 91.992 39.1391 92.0263C39.1596 92.1152 39.1965 92.1996 39.2478 92.2751C39.2566 92.2903 39.2621 92.3064 39.2721 92.3213L39.2743 92.3243C39.2779 92.3296 39.282 92.334 39.2854 92.339C39.319 92.387 39.3565 92.4323 39.3973 92.4744C39.4065 92.4841 39.4158 92.4938 39.425 92.5021C39.4702 92.5465 39.5191 92.5869 39.5712 92.6229L39.5853 92.6312C39.6345 92.663 39.6862 92.6907 39.7399 92.7141C39.7523 92.7197 39.7645 92.7258 39.7775 92.731C39.8345 92.7543 39.8934 92.7728 39.9536 92.7863C39.9674 92.7893 39.9812 92.7913 39.9953 92.7938C40.0599 92.8062 40.1254 92.8129 40.1911 92.8137H48.0672C48.1373 92.8133 48.2071 92.8063 48.2759 92.7927C48.3008 92.788 48.3243 92.7794 48.3486 92.773C48.3913 92.7625 48.4333 92.7494 48.4744 92.7338C48.5021 92.723 48.5278 92.7089 48.5543 92.6959C48.5897 92.6793 48.6242 92.6608 48.6577 92.6406C48.6854 92.6232 48.7102 92.6033 48.7359 92.5837C48.7559 92.5685 48.7771 92.556 48.7962 92.54C48.8153 92.5239 48.8305 92.5071 48.8485 92.491C51.8379 89.7977 51.3464 84.3498 51.3237 84.1179C51.2915 83.8291 51.147 83.5647 50.9215 83.3816C50.6959 83.1986 50.4073 83.1117 50.1182 83.1396C49.829 83.1676 49.5625 83.3082 49.3762 83.5311C49.1899 83.754 49.0987 84.0412 49.1225 84.3307C49.2369 85.5419 49.1642 88.8925 47.6104 90.6033H43.2228C48.8598 84.7272 48.7661 75.2498 48.7583 74.8168V59.9742C48.7583 59.6809 48.6418 59.3996 48.4344 59.1923C48.227 58.9849 47.9458 58.8683 47.6525 58.8683C47.3592 58.8683 47.0779 58.9849 46.8705 59.1923C46.6631 59.3996 46.5466 59.6809 46.5466 59.9742V74.837C46.5488 74.9487 46.6641 86.0836 39.5812 90.7877Z" fill="black" fill-opacity="0.72"/>
<path d="M36.1438 5.37152C35.8505 5.37152 35.5693 5.48803 35.3619 5.69543C35.1545 5.90282 35.038 6.1841 35.038 6.4774C35.038 6.7707 35.1545 7.05199 35.3619 7.25938C35.5693 7.46677 35.8505 7.58329 36.1438 7.58329H36.1472C36.4405 7.58428 36.7221 7.46871 36.9302 7.26202C37.1383 7.05533 37.2558 6.77443 37.2568 6.48113C37.2578 6.18784 37.1422 5.90616 36.9355 5.69807C36.7288 5.48997 36.4479 5.37251 36.1546 5.37152H36.1438Z" fill="black" fill-opacity="0.72"/>
<path d="M47.6525 54.8891C47.9458 54.8891 48.2271 54.7725 48.4345 54.5652C48.6419 54.3578 48.7584 54.0765 48.7584 53.7832V53.3433C48.7584 53.05 48.6419 52.7687 48.4345 52.5613C48.2271 52.3539 47.9458 52.2374 47.6525 52.2374C47.3592 52.2374 47.0779 52.3539 46.8705 52.5613C46.6631 52.7687 46.5466 53.05 46.5466 53.3433V53.7832C46.5466 54.0765 46.6631 54.3578 46.8705 54.5652C47.0779 54.7725 47.3592 54.8891 47.6525 54.8891Z" fill="black" fill-opacity="0.72"/>
</svg>
